<?xml version="1.0" standalone="no"?>
<!DOCTYPE svg PUBLIC "-//W3C//DTD SVG 20010904//EN"
 "http://www.w3.org/TR/2001/REC-SVG-20010904/DTD/svg10.dtd">
<svg version="1.0" xmlns="http://www.w3.org/2000/svg"
 width="94.000000pt" height="94.000000pt" viewBox="0 0 94.000000 94.000000"
 preserveAspectRatio="xMidYMid meet">

<g transform="translate(0.000000,94.000000) scale(0.100000,-0.100000)"
fill="#000000" stroke="none">
<path d="M613 734 c0 -52 -38 -124 -78 -143 -44 -21 -112 -17 -149 9 l-31 23
28 -29 c25 -26 35 -29 113 -34 55 -3 80 -2 71 4 -12 8 -10 14 14 38 38 38 55
97 42 140 l-11 33 1 -41z"/>
<path d="M691 435 c0 -5 6 -21 14 -35 8 -14 14 -20 14 -15 0 6 -6 21 -14 35
-8 14 -14 21 -14 15z"/>
<path d="M721 334 c0 -11 3 -14 6 -6 3 7 2 16 -1 19 -3 4 -6 -2 -5 -13z"/>
<path d="M650 294 c0 -16 5 -36 10 -44 6 -10 7 -2 3 25 -7 49 -13 58 -13 19z"/>
<path d="M630 270 c-1 -8 -3 -40 -3 -71 -2 -46 1 -55 13 -51 13 5 13 3 1 -12
-24 -29 -51 -38 -130 -46 l-76 -7 60 -2 c109 -2 187 37 164 82 -8 14 -8 18 0
13 20 -13 17 42 -4 59 -7 5 -15 19 -18 30 -3 13 -5 14 -7 5z"/>
<path d="M247 193 c26 -3 33 -9 36 -31 4 -24 4 -24 6 6 1 31 0 32 -36 30 -37
-1 -37 -1 -6 -5z"/>
<path d="M393 83 c9 -2 23 -2 30 0 6 3 -1 5 -18 5 -16 0 -22 -2 -12 -5z"/>
</g>
</svg>
